<?xml version="1.0" encoding="UTF-8" standalone="no"?>
<!DOCTYPE svg PUBLIC "-//W3C//DTD SVG 1.1//EN" "http://www.w3.org/Graphics/SVG/1.1/DTD/svg11.dtd">
<svg width="100%" height="100%" viewBox="0 0 425 427" version="1.1" xmlns="http://www.w3.org/2000/svg" xmlns:xlink="http://www.w3.org/1999/xlink" xml:space="preserve" xmlns:serif="http://www.serif.com/" style="fill-rule:evenodd;clip-rule:evenodd;stroke-linejoin:round;stroke-miterlimit:2;">
    <g transform="matrix(1,0,0,1,-12.862855,-10.776856)">
        <g transform="matrix(-0.391834,1.562402,-1.544773,-0.387413,1063.133866,-606.020972)">
            <path d="M619.508,263.926C621.05,264.326 625.547,265.492 637.405,272.656C640.124,274.154 646.834,277.758 647.656,278.199C650.291,279.614 650.193,279.609 652.765,281.021C664.492,287.46 663.657,288.539 672.036,298.879C676.946,304.938 677.368,306.436 678.775,307.797C679.683,309.053 687.626,318.606 687.626,318.606C687.626,318.606 773.096,423.683 774.19,428.579C776.144,437.323 770.193,440.256 760.214,449.173C747.376,460.646 738.521,445.005 736.228,441.694C734.639,439.839 724.237,427.69 717.093,417.911C712.349,412.176 688.957,381.97 688.568,381.87C688.123,381.755 678.131,368.634 675.088,364.849C671.706,360.643 639.714,320.854 632.965,312.151C629.743,307.997 621.508,277.075 619.237,268.027C618.844,266.462 618.916,265.5 618.916,265.5C618.913,264.94 619.51,264.487 619.508,263.926Z" style="fill:rgb(137,99,73);"/>
            <path d="M657.433,300.453C657.885,301.087 658.338,301.72 658.791,302.354C663.782,309.661 734.848,398.539 737.43,401.392C732.463,405.547 732.32,405.228 727.577,409.609C705.187,380.455 680.64,350.349 648.966,310.264C647.92,308.941 648.126,308.908 647.388,307.472C648.313,303.359 648.504,301.15 650.44,301.076C654,300.94 653.963,301.267 657.433,300.453Z" style="fill:rgb(224,144,53);"/>
            <path d="M647.388,307.472C648.126,308.908 647.92,308.941 648.966,310.264C680.64,350.349 705.187,380.455 727.577,409.609C727.096,410.077 725.953,411.187 721.213,415.069C716.151,409.732 671.432,353.281 669.844,351.254C640.299,313.538 639.84,313.947 637.517,310.493C634.149,305.485 641.421,311.509 647.388,307.472Z" style="fill:rgb(199,119,41);"/>
            <path d="M657.433,300.453C660.456,295.64 659.654,290.108 662.228,293.731C667.547,301.217 742.498,393.686 742.754,395.463C743.056,397.556 738.112,400.813 737.43,401.392C734.848,398.539 663.782,309.661 658.791,302.354C658.338,301.72 657.885,301.087 657.433,300.453Z" style="fill:rgb(240,180,99);"/>
            <path d="M756.272,425.292C767.001,434.171 766.424,434.695 767.574,436.589C755.408,446.898 751.777,453.503 744.057,443.827C742.01,441.262 741.74,441.498 740.497,438.498C741.75,437.43 746.247,433.599 756.272,425.292Z" style="fill:rgb(227,116,132);"/>
            <path d="M634.615,276.648C637.985,277.456 637.774,277.867 652.714,286.106C658.065,289.056 656.802,290.38 655.105,295.392C654.5,297.179 649.051,297.164 648.504,297.163C644.655,297.152 644.639,302.209 644.559,302.516C632.408,282.677 631.836,282.929 629.5,281.798L628.351,281.373C631.707,279.219 631.831,279.525 634.615,276.648Z" style="fill:rgb(241,203,168);"/>
            <path d="M628.351,281.373L629.5,281.798C631.836,282.929 632.408,282.677 644.559,302.516C642.984,307.774 634.546,305.494 634.012,303.71C628.485,285.24 628.415,283.215 628.351,281.373Z" style="fill:rgb(218,174,141);"/>
            <path d="M752.584,407.406C756.16,412.562 752.187,412.261 747.429,416.397C733.447,428.55 733.094,428.64 731.588,428.166C723.804,425.715 735.024,419.799 748.718,407.775C751.166,405.626 751.91,406.95 752.584,407.406Z" style="fill:rgb(196,205,205);"/>
            <path d="M742.659,402.674C744.983,400.79 744.731,399.99 746.539,400.39C750.326,401.226 746.187,404.717 745.905,404.955C733.795,415.169 727,421.022 725.428,420.743C719.538,419.696 733.215,411.048 742.659,402.674Z" style="fill:rgb(204,215,211);"/>
            <path d="M757.32,418.3C749.973,424.62 733.8,439.927 735.273,432.448C735.46,431.497 756.035,413.908 757.621,414.161C760.588,414.636 757.541,418.052 757.32,418.3Z" style="fill:rgb(211,218,217);"/>
            <path d="M756.272,425.292C760.551,421.69 761.466,418.751 764.965,423.107C766.132,424.56 773.221,430.622 767.574,436.589C766.424,434.695 767.001,434.171 756.272,425.292Z" style="fill:rgb(247,138,151);"/>
        </g>
        <g transform="matrix(0.424858,0,0,0.424858,8.99334,3.599229)">
            <path d="M601.229,338.978C601.149,339.085 600.227,340.314 600.227,340.314C594.897,372.205 596.573,372.43 583.655,437.53C573.442,488.997 553.301,539.309 543.023,557.229C514.323,607.268 481.662,638.482 431.429,649.158C304.204,676.198 245.484,570.345 220.853,528.285C207.985,506.312 210.116,504.93 208.22,503.808C205.764,502.355 208.193,511.895 208.259,512.523C213.621,563.694 211.232,565.142 221.953,599.361C229.808,624.433 254.532,669.577 222.052,714.176C192.435,754.843 162.483,765.843 131.582,761.016C125.905,760.129 102.536,756.479 68.734,726.231C51.891,711.159 52.373,710.672 50.163,705.651C35.312,671.915 36.831,671.386 29.764,643.434C15.563,587.26 8.344,449.308 9.172,379.495C10.888,234.751 21.693,200.737 32.934,170.663C41.213,148.51 57.373,121.733 67.01,110.09C71.498,104.667 98.221,72.379 147.499,74.54C247.832,78.939 258.601,124.273 352.846,336.35C386.049,411.064 387.476,420.258 388.588,413.544C391.915,393.448 397.559,367.472 398.425,363.483C411.206,304.659 419.279,210.221 420.799,198.54C438.63,61.511 489.352,40.322 511.504,31.511C572.29,7.332 604.33,15.453 638.794,39.081C719.412,94.353 774.001,263.017 821.079,337.754C830.268,352.343 834.196,341.663 858.78,325.944C938.505,274.967 1022.849,359.683 1005.425,428.48C998.394,456.24 991.021,465.74 975,487.12C929.733,547.53 864.645,567.359 823.501,567.838C729.345,568.932 666.306,460.806 645.948,428.234C622.287,390.378 601.943,340.242 601.229,338.978Z" style="fill:rgb(33,37,47);"/>
            <path d="M181.696,95.041C182.593,95.298 197.164,98.816 211.189,107.992C253.541,135.702 283.688,225.022 301.88,261.313C349.622,356.555 363.18,402.156 371.78,421.377C379.371,438.344 388.959,447.769 391.529,446.546C398.242,443.352 403.513,423.634 404.092,421.466C404.307,421.748 403.796,422.243 404.01,422.525C404.3,422.907 403.843,423.358 408.464,426.537C441.729,449.425 505.961,451.435 553.713,373.643C567.237,351.611 573.866,325.67 575.303,321.31C577.12,315.798 582.94,318.286 584.844,312.5C585.781,309.653 585.767,309.688 587.809,307.559C585.627,328.953 578.852,373.829 577.984,379.579C577.206,384.732 572.981,412.722 565.931,443.596C541.964,548.556 504.719,585.941 502.046,589.125C441.464,661.285 351.075,632.515 346.616,631.156C284.767,612.306 230.266,528.841 205.247,454.583C203.81,449.463 199.622,435.554 192.509,435.272C182.294,434.868 185.834,460.855 185.866,461.477C185.484,461.941 186.331,462.008 185.944,462.479C184.681,464.014 184.271,463.354 184.202,463.5C183.779,464.407 184.16,465.503 184.067,466.5C178.106,530.101 105.729,567.311 45.201,526.453C45.176,525.988 31.724,345.108 66.618,227.536C85.844,162.756 125.727,125.327 147.212,111.084C169.976,95.994 175.295,100.546 181.696,95.041Z" style="fill:rgb(84,98,126);"/>
            <path d="M407.227,407.476C416.846,352.039 417.675,352.246 425.885,296.545C438.39,211.705 437.551,82.433 511.494,49.486C577.55,20.054 602.147,35.568 624.265,48.896C689.17,88.004 748.019,232.172 775.648,286.448C775.505,286.756 776.087,287.116 775.944,287.424C775.848,287.631 773.411,290.071 773.186,290.296C761.673,301.823 735.841,317.998 712.392,323.135C652.035,336.358 613.837,313.618 608.011,312.886C604.633,307.508 602.759,297.124 596.481,296.744C587.717,296.214 587.983,306.56 587.809,307.559C585.767,309.688 585.781,309.653 584.844,312.5C582.94,318.286 582.557,318.063 580.74,323.576C579.303,327.935 570.791,353.759 558.244,376.361C510.492,462.383 441.729,458.112 408.464,426.537C404.396,422.676 404.3,422.907 404.01,422.525C403.796,422.243 404.307,421.748 404.092,421.466C404.955,417.894 406.982,408.596 407.227,407.476Z" style="fill:rgb(94,108,137);"/>
            <path d="M775.648,286.448C786.909,313.458 806.802,345.156 809.874,350.05C809.437,351.007 808.888,350.503 808.438,351.488C808.404,351.563 808.387,351.602 808.773,352.459C810.717,356.772 814.497,365.951 822.83,372.072C856.981,397.158 899.583,331.913 905.565,326.085C905.798,325.858 906.296,326.153 906.529,325.926C911.575,325.801 911.526,325.738 916.531,326.186C960.144,330.096 1019.299,389.863 977.023,457.204C923.054,543.171 840.157,564.364 783.597,545.207C708.493,519.768 636.253,389.567 608.011,312.886C613.837,313.618 651.144,332.943 711.501,319.72C734.95,314.583 761.673,301.823 773.186,290.296C773.411,290.071 775.848,287.631 775.944,287.424C776.087,287.116 775.505,286.756 775.648,286.448Z" style="fill:rgb(72,86,115);"/>
            <g transform="matrix(1,0,0,1.039031,0,-29.147068)">
                <path d="M185.866,461.477C189.231,500.928 191.555,500.638 195.31,547.515C201.028,618.902 228.088,635.108 221.727,675.539C221.008,680.109 217.303,703.659 192.378,725.365C168.655,746.025 144.708,755.886 108.343,735.782C80.986,720.658 68.853,704.234 66.248,700.709C66.358,700.534 67.623,698.526 67.623,698.526C64.641,672.91 63.737,669.094 63.141,666.583C49.412,608.677 51.377,592.925 46.807,560.497C45.371,529.12 45.39,529.173 45.201,526.453C105.729,567.311 178.106,530.101 184.067,466.5C184.16,465.503 183.779,464.407 184.202,463.5C184.271,463.354 184.681,464.014 185.944,462.479C186.331,462.008 185.484,461.941 185.866,461.477Z" style="fill:rgb(72,87,115);"/>
            </g>
            <path d="M181.696,95.041C175.295,100.546 169.976,95.994 147.212,111.084C125.727,125.327 85.844,162.756 66.618,227.536C31.724,345.108 45.176,525.988 45.201,526.453C45.39,529.173 45.371,529.12 46.807,560.497C46.452,561.036 45.507,560.961 45.152,561.5C44.643,562.273 43.707,579.5 37.466,585.506C37.211,582.937 37.244,582.999 36.963,580.437C35.439,566.499 26.513,484.911 26.273,405.5C25.666,204.699 45.636,175.989 70.88,134.718C100.885,85.664 133.78,86.204 181.696,95.041Z" style="fill:rgb(125,139,171);"/>
            <path d="M906.529,325.926C906.296,326.153 905.798,325.858 905.565,326.085C899.583,331.913 856.981,397.158 822.83,372.072C814.497,365.951 810.717,356.772 808.773,352.459C808.387,351.602 808.404,351.563 808.438,351.488C808.888,350.503 809.437,351.007 809.874,350.05C810.455,350.813 814.127,355.633 818.691,358.173C845.733,373.221 851.694,331.649 906.529,325.926Z" style="fill:rgb(105,119,150);"/>
            <path d="M46.807,560.497C51.377,592.925 49.412,608.677 63.141,666.583C63.737,669.094 64.641,672.91 67.623,698.526C67.623,698.526 66.358,700.534 66.248,700.709C60.519,686.106 45.732,655.837 37.466,585.506C39.594,576.269 41.818,560.054 45.152,561.5C45.744,561.757 46.452,561.036 46.807,560.497Z" style="fill:rgb(110,123,153);"/>
        </g>
    </g>
</svg>
